<?xml version="1.0" encoding="UTF-8" standalone="no"?>
<svg width="144px" height="84px" viewBox="0 0 144 84" version="1.1" xmlns="http://www.w3.org/2000/svg" xmlns:xlink="http://www.w3.org/1999/xlink" xmlns:sketch="http://www.bohemiancoding.com/sketch/ns">
    <!-- Generator: Sketch 3.2.2 (9983) - http://www.bohemiancoding.com/sketch -->
    <title>Artboard 1</title>
    <desc>Created with Sketch.</desc>
    <defs></defs>
    <g id="Page-1" stroke="none" stroke-width="1" fill="none" fill-rule="evenodd" sketch:type="MSPage">
        <g id="Artboard-1" sketch:type="MSArtboardGroup" fill="#C1C1C1">
            <path d="M93.015,64.896 L4.68,64.896 L4.68,5.125 L93.015,5.125 L93.015,64.896 L93.015,64.896 Z M96.696,66.761 L96.696,66.761 L96.696,3.259 C96.696,2.223 95.873,1.391 94.857,1.391 L2.84,1.391 C1.824,1.392 1,2.224 1,3.259 L1,66.761 C1,67.794 1.825,68.628 2.84,68.628 L37.807,68.628 L37.807,79.836 L23.084,79.836 C22.067,79.836 21.245,80.67 21.245,81.704 C21.245,82.735 22.069,83.572 23.084,83.572 L23.085,83.572 L74.613,83.572 C75.63,83.572 76.454,82.735 76.454,81.704 C76.454,80.67 75.629,79.836 74.613,79.836 L59.89,79.836 L59.89,68.628 L94.858,68.628 C95.875,68.628 96.696,67.793 96.696,66.761 L96.696,66.761 Z M139.915,30.49 L110.86,30.49 L110.86,24.592 L139.915,24.592 L139.915,30.49 L139.915,30.49 Z M139.915,18.696 L110.86,18.696 L110.86,12.796 L139.915,12.796 L139.915,18.696 L139.915,18.696 Z M123.098,54.279 C123.098,52.993 124.125,51.955 125.388,51.955 C126.653,51.955 127.681,52.993 127.681,54.279 C127.681,55.564 126.653,56.605 125.388,56.605 C124.126,56.605 123.098,55.563 123.098,54.279 L123.098,54.279 Z M123.665,61.034 C123.665,60.068 124.436,59.285 125.388,59.285 C126.341,59.285 127.113,60.067 127.113,61.034 C127.113,62.002 126.341,62.788 125.388,62.788 C124.436,62.787 123.665,62.002 123.665,61.034 L123.665,61.034 Z M142.825,80.622 L142.825,3.949 C142.825,2.321 141.523,1 139.917,1 L110.863,1 C109.259,1 107.958,2.324 107.958,3.949 L107.958,80.621 C107.958,82.251 109.259,83.57 110.863,83.57 L139.917,83.57 C141.522,83.571 142.825,82.252 142.825,80.622 L142.825,80.622 Z" id="Shape-6" sketch:type="MSShapeGroup"></path>
        </g>
    </g>
</svg>