<?xml version="1.0" encoding="UTF-8" standalone="no"?>
<svg width="53px" height="104px" viewBox="0 0 53 104" version="1.1" xmlns="http://www.w3.org/2000/svg" xmlns:xlink="http://www.w3.org/1999/xlink" xmlns:sketch="http://www.bohemiancoding.com/sketch/ns">
    <!-- Generator: Sketch 3.2.2 (9983) - http://www.bohemiancoding.com/sketch -->
    <title>z</title>
    <desc>Created with Sketch.</desc>
    <defs></defs>
    <g id="Page-1" stroke="none" stroke-width="1" fill="none" fill-rule="evenodd" sketch:type="MSPage">
        <g id="z" sketch:type="MSArtboardGroup" fill="#C1C1C1">
            <path d="M1,10.25 L1,93.4999998 C1,102.75 10.25,102.75 10.25,102.75 L42.625,102.75 C42.625,102.75 51.875,102.75 51.875,93.4999998 L51.875,10.25 C51.875,1 42.625,1 42.625,1 L10.25,1 C10.25,1 1,1 1,10.25 L1,10.25 Z M5.625,12.5447115 L5.625,86.4308654 L47.25,86.4308654 L47.25,12.5447115 L5.625,12.5447115 L5.625,12.5447115 Z M26.4375,98.8991396 C28.9918171,98.8991396 31.0625,96.8316424 31.0625,94.2812549 C31.0625,91.7308679 28.9918171,89.6633703 26.4375,89.6633703 C23.8831829,89.6633703 21.8125,91.7308679 21.8125,94.2812549 C21.8125,96.8316424 23.8831829,98.8991396 26.4375,98.8991396 L26.4375,98.8991396 L26.4375,98.8991396 Z M20.1140945,5.61788462 C19.7749394,5.61788462 19.5,6.06375791 19.5,6.6389123 L19.5,6.90935709 C19.5,7.47325507 19.7771584,7.93038464 20.1140945,7.93038464 L32.7609056,7.93038464 C33.1000607,7.93038464 33.375,7.48451134 33.375,6.90935709 L33.375,6.6389123 C33.375,6.07501428 33.0978417,5.61788462 32.7609056,5.61788462 L20.1140945,5.61788462 L20.1140945,5.61788462 Z" id="path-1" sketch:type="MSShapeGroup"></path>
        </g>
    </g>
</svg>