<?xml version="1.0" encoding="UTF-8" standalone="no"?>
<svg width="142px" height="116px" viewBox="0 0 142 116" version="1.1" xmlns="http://www.w3.org/2000/svg" xmlns:xlink="http://www.w3.org/1999/xlink" xmlns:sketch="http://www.bohemiancoding.com/sketch/ns">
    <!-- Generator: Sketch 3.2.2 (9983) - http://www.bohemiancoding.com/sketch -->
    <title>Artboard 1</title>
    <desc>Created with Sketch.</desc>
    <defs></defs>
    <g id="Page-1" stroke="none" stroke-width="1" fill="none" fill-rule="evenodd" sketch:type="MSPage">
        <g id="Artboard-1" sketch:type="MSArtboardGroup" fill="#C1C1C1">
            <path d="M135.979,89.47 L6.4,89.47 L6.4,6.204 L135.98,6.204 L135.979,89.47 L135.979,89.47 Z M141.376,92.072 L141.376,92.072 L141.376,3.604 C141.376,2.166 140.167,1 138.679,1 L3.7,1 C2.209,1.001 1,2.166 1,3.604 L1,92.073 C1,93.511 2.209,94.677 3.7,94.677 L54.991,94.677 L54.991,110.286 L33.395,110.286 C31.904,110.286 30.695,111.451 30.695,112.89 C30.695,114.327 31.904,115.492 33.395,115.492 L33.396,115.492 L108.981,115.492 C110.471,115.492 111.68,114.327 111.68,112.89 C111.68,111.452 110.471,110.286 108.981,110.286 L87.386,110.286 L87.386,94.674 L138.677,94.674 C140.167,94.674 141.376,93.511 141.376,92.072 L141.376,92.072 Z" id="Shape-4" sketch:type="MSShapeGroup"></path>
        </g>
    </g>
</svg>