<?xml version="1.0" encoding="UTF-8" standalone="no"?>
<svg width="91px" height="117px" viewBox="0 0 91 117" version="1.1" xmlns="http://www.w3.org/2000/svg" xmlns:xlink="http://www.w3.org/1999/xlink" xmlns:sketch="http://www.bohemiancoding.com/sketch/ns">
    <!-- Generator: Sketch 3.2.2 (9983) - http://www.bohemiancoding.com/sketch -->
    <title>z</title>
    <desc>Created with Sketch.</desc>
    <defs></defs>
    <g id="Page-1" stroke="none" stroke-width="1" fill="none" fill-rule="evenodd" sketch:type="MSPage">
        <g id="z" sketch:type="MSArtboardGroup" fill="#C1C1C1">
            <path d="M81.1650786,105.948737 L10.1748488,105.948737 L10.1748488,11.5505874 L81.1634495,11.5505874 L81.1650786,105.948737 L81.1650786,105.948737 Z M42.8594332,111.333584 C42.8594332,109.782722 44.1162506,108.527534 45.6679274,108.527534 C47.2212332,108.527534 48.4788651,109.783537 48.4788651,111.333584 C48.4788651,112.890148 47.2220477,114.146151 45.6679274,114.146151 C44.1178797,114.146151 42.8594332,112.888519 42.8594332,111.333584 L42.8594332,111.333584 Z M90.3399274,5.43184946 L90.3350402,5.43184946 C90.3350402,5.39356663 90.3399274,5.35772737 90.3399274,5.31944453 C90.3399274,2.93369061 88.4062367,1 86.0196683,1 C85.9813855,1 85.9439171,1.00325811 85.9056343,1.00488717 L85.9056343,1 L5.43347852,1 L5.43347852,1.00488717 C5.39601021,1.00325811 5.35935643,1 5.32025906,1 C2.93369061,1 1,2.93369061 1,5.32025906 C1,5.3585419 1.00488717,5.39438115 1.0057017,5.43266399 L1,5.43266399 L1,111.747365 L1.11566304,111.747365 C1.11484852,111.788906 1.10751776,111.824745 1.10751776,111.864657 C1.10751776,114.245524 3.03713573,116.174327 5.41963154,116.174327 C5.45709985,116.174327 5.49456816,116.16944 5.53203647,116.167811 L5.53203647,116.174327 L85.8119635,116.174327 L85.8119635,116.167811 C85.8502464,116.16944 85.8860856,116.174327 85.9259975,116.174327 C88.3068643,116.174327 90.2381113,114.245524 90.2381113,111.864657 C90.2381113,111.824745 90.2315951,111.788906 90.2291515,111.747365 L90.344,111.747365 L90.3399274,5.43184946 L90.3399274,5.43184946 Z" id="Shape-5" sketch:type="MSShapeGroup"></path>
        </g>
    </g>
</svg>