<?xml version="1.0" encoding="UTF-8" standalone="no"?>
<svg width="147px" height="146px" viewBox="0 0 147 146" version="1.1" xmlns="http://www.w3.org/2000/svg" xmlns:xlink="http://www.w3.org/1999/xlink" xmlns:sketch="http://www.bohemiancoding.com/sketch/ns">
    <!-- Generator: Sketch 3.2.2 (9983) - http://www.bohemiancoding.com/sketch -->
    <title>z</title>
    <desc>Created with Sketch.</desc>
    <defs></defs>
    <g id="Page-1" stroke="none" stroke-width="1" fill="none" fill-rule="evenodd" sketch:type="MSPage">
        <g id="z" sketch:type="MSArtboardGroup">
            <g id="Group" sketch:type="MSLayerGroup" transform="translate(1.000000, 0.000000)">
                <path d="M95.4545455,140.909091 C95.4545455,143.420455 93.4204545,145.454545 90.9090909,145.454545 L54.5454545,145.454545 C52.0340909,145.454545 50,143.420455 50,140.909091 L50,77.2727273 C50,74.7613636 52.0340909,72.7272727 54.5454545,72.7272727 L90.9090909,72.7272727 C93.4204545,72.7272727 95.4545455,74.7613636 95.4545455,77.2727273 L95.4545455,140.909091 L95.4545455,140.909091 Z" id="Shape" fill="#3E3E3F" sketch:type="MSShapeGroup"></path>
                <path d="M145.454545,140.909091 C145.454545,143.420455 143.420455,145.454545 140.909091,145.454545 L104.545455,145.454545 C102.034091,145.454545 100,143.420455 100,140.909091 L100,77.2727273 C100,74.7613636 102.034091,72.7272727 104.545455,72.7272727 L140.909091,72.7272727 C143.420455,72.7272727 145.454545,74.7613636 145.454545,77.2727273 L145.454545,140.909091 L145.454545,140.909091 Z" id="Shape" fill="#3E3E3F" sketch:type="MSShapeGroup"></path>
                <path d="M45.4545455,140.909091 C45.4545455,143.420455 43.4204545,145.454545 40.9090909,145.454545 L4.54545455,145.454545 C2.03409091,145.454545 0,143.420455 0,140.909091 L0,77.2727273 C0,74.7613636 2.03409091,72.7272727 4.54545455,72.7272727 L40.9090909,72.7272727 C43.4204545,72.7272727 45.4545455,74.7613636 45.4545455,77.2727273 L45.4545455,140.909091 L45.4545455,140.909091 Z" id="Shape" fill="#3E3E3F" sketch:type="MSShapeGroup"></path>
                <circle id="Oval" fill="#FA5655" sketch:type="MSShapeGroup" cx="35.2272727" cy="82.9545455" r="3.40909091"></circle>
                <circle id="Oval" fill="#F99134" sketch:type="MSShapeGroup" cx="23.8636364" cy="82.9545455" r="3.40909091"></circle>
                <circle id="Oval" fill="#FACB1B" sketch:type="MSShapeGroup" cx="12.5" cy="82.9545455" r="3.40909091"></circle>
                <path d="M120.454545,42.1863636 C120.454545,33.2 114.904545,25.5227273 107.05,22.3613636 C100.827273,7.14318182 90.7727273,0.959090909 78.4613636,0.959090909 C66.8886364,0.959090909 56.8568182,7.55454545 51.9386364,17.2022727 C44.1136364,13.8704545 35.2909091,19.4045455 34.9659091,27.975 C27.8431818,30.4863636 22.7272727,37.2568182 22.7272727,45.2409091 C22.7272727,55.3613636 30.9318182,63.5636364 41.05,63.5636364 L102.129545,63.5636364 C102.129545,63.5659091 120.454545,60.1659091 120.454545,42.1863636 L120.454545,42.1863636 Z" id="Shape" fill="#F0F1F1" sketch:type="MSShapeGroup"></path>
                <path d="M78.4613636,0.959090909 C66.8886364,0.959090909 56.8568182,7.55454545 51.9386364,17.2022727 C44.1136364,13.8704545 35.2909091,19.4045455 34.9659091,27.975 C27.8431818,30.4863636 22.7272727,37.2568182 22.7272727,45.2409091 C22.7272727,54.85 30.1295455,62.7181818 39.5409091,63.4886364 L96.1840909,6.84318182 C91.0977273,2.78409091 85.1136364,0.959090909 78.4613636,0.959090909 L78.4613636,0.959090909 Z" id="Shape" fill="#FFFFFF" sketch:type="MSShapeGroup"></path>
                <circle id="Oval" fill="#FA5655" sketch:type="MSShapeGroup" cx="85.2272727" cy="82.9545455" r="3.40909091"></circle>
                <circle id="Oval" fill="#F99134" sketch:type="MSShapeGroup" cx="73.8636364" cy="82.9545455" r="3.40909091"></circle>
                <circle id="Oval" fill="#FACB1B" sketch:type="MSShapeGroup" cx="62.5" cy="82.9545455" r="3.40909091"></circle>
                <circle id="Oval" fill="#FA5655" sketch:type="MSShapeGroup" cx="135.227273" cy="82.9545455" r="3.40909091"></circle>
                <circle id="Oval" fill="#F99134" sketch:type="MSShapeGroup" cx="123.863636" cy="82.9545455" r="3.40909091"></circle>
                <circle id="Oval" fill="#FACB1B" sketch:type="MSShapeGroup" cx="112.5" cy="82.9545455" r="3.40909091"></circle>
                <rect id="Rectangle-path" fill="#818284" sketch:type="MSShapeGroup" x="0" y="129.545455" width="45.4545455" height="4.54545455"></rect>
                <rect id="Rectangle-path" fill="#818284" sketch:type="MSShapeGroup" x="0" y="118.181818" width="45.4545455" height="4.54545455"></rect>
                <rect id="Rectangle-path" fill="#818284" sketch:type="MSShapeGroup" x="0" y="106.818182" width="45.4545455" height="4.54545455"></rect>
                <rect id="Rectangle-path" fill="#818284" sketch:type="MSShapeGroup" x="0" y="95.4545455" width="45.4545455" height="4.54545455"></rect>
                <rect id="Rectangle-path" fill="#818284" sketch:type="MSShapeGroup" x="50" y="129.545455" width="45.4545455" height="4.54545455"></rect>
                <rect id="Rectangle-path" fill="#818284" sketch:type="MSShapeGroup" x="50" y="118.181818" width="45.4545455" height="4.54545455"></rect>
                <rect id="Rectangle-path" fill="#818284" sketch:type="MSShapeGroup" x="50" y="106.818182" width="45.4545455" height="4.54545455"></rect>
                <rect id="Rectangle-path" fill="#818284" sketch:type="MSShapeGroup" x="50" y="95.4545455" width="45.4545455" height="4.54545455"></rect>
                <rect id="Rectangle-path" fill="#818284" sketch:type="MSShapeGroup" x="100" y="129.545455" width="45.4545455" height="4.54545455"></rect>
                <rect id="Rectangle-path" fill="#818284" sketch:type="MSShapeGroup" x="100" y="118.181818" width="45.4545455" height="4.54545455"></rect>
                <rect id="Rectangle-path" fill="#818284" sketch:type="MSShapeGroup" x="100" y="106.818182" width="45.4545455" height="4.54545455"></rect>
                <rect id="Rectangle-path" fill="#818284" sketch:type="MSShapeGroup" x="100" y="95.4545455" width="45.4545455" height="4.54545455"></rect>
            </g>
        </g>
    </g>
</svg>