<?xml version="1.0" encoding="UTF-8" standalone="no"?>
<svg width="160px" height="163px" viewBox="0 0 160 163" version="1.1" xmlns="http://www.w3.org/2000/svg" xmlns:xlink="http://www.w3.org/1999/xlink" xmlns:sketch="http://www.bohemiancoding.com/sketch/ns">
    <!-- Generator: Sketch 3.2.2 (9983) - http://www.bohemiancoding.com/sketch -->
    <title>Artboard 1</title>
    <desc>Created with Sketch.</desc>
    <defs></defs>
    <g id="Page-1" stroke="none" stroke-width="1" fill="none" fill-rule="evenodd" sketch:type="MSPage">
        <g id="Artboard-1" sketch:type="MSArtboardGroup">
            <g id="Group-4" sketch:type="MSLayerGroup" transform="translate(17.000000, 53.000000)">
                <path d="M114.215385,82.52 C114.215385,85.0912 111.891815,87.1744 109.023938,87.1744 L5.19144615,87.1744 C2.32356923,87.1744 0,85.0912 0,82.52 L0,17.3568 C0,14.7856 2.32356923,12.7024 5.19144615,12.7024 L109.023938,12.7024 C111.891815,12.7024 114.215385,14.7856 114.215385,17.3568 L114.215385,82.52 L114.215385,82.52 Z" id="Shape" fill="#3E3E3F" sketch:type="MSShapeGroup"></path>
                <rect id="Rectangle-path" fill="#E2E4E5" sketch:type="MSShapeGroup" x="41.5333538" y="87.176" width="31.1504615" height="11.928"></rect>
                <path d="M83.0649231,101.4304 C83.0649231,102.7152 81.9031385,103.7584 80.4683077,103.7584 L33.7452923,103.7584 C32.3122462,103.7584 31.1486769,102.7168 31.1486769,101.4304 C31.1486769,100.144 32.3104615,99.1024 33.7452923,99.1024 L80.4700923,99.1024 C81.9031385,99.1024 83.0649231,100.144 83.0649231,101.4304 L83.0649231,101.4304 Z" id="Shape" fill="#F0F1F1" sketch:type="MSShapeGroup"></path>
                <path d="M114.215385,82.52 L114.215385,68.5568 L0,68.5568 L0,82.52 C0,85.0912 2.32535385,87.1744 5.19144615,87.1744 L109.023938,87.1744 C111.890031,87.176 114.215385,85.0912 114.215385,82.52 L114.215385,82.52 Z" id="Shape" fill="#FFFFFF" sketch:type="MSShapeGroup"></path>
                <path d="M57.1076923,84.4112 C53.2600615,84.4112 50.1316308,81.6064 50.1316308,78.1568 C50.1316308,74.7072 53.2618462,71.9024 57.1076923,71.9024 C60.9535385,71.9024 64.0837538,74.7072 64.0837538,78.1568 C64.0837538,81.6064 60.9553231,84.4112 57.1076923,84.4112 L57.1076923,84.4112 Z M57.1076923,75.1024 C55.2284923,75.1024 53.7008615,76.472 53.7008615,78.1568 C53.7008615,79.84 55.2284923,81.2112 57.1076923,81.2112 C58.9868923,81.2112 60.5145231,79.8416 60.5145231,78.1568 C60.5145231,76.4736 58.9868923,75.1024 57.1076923,75.1024 L57.1076923,75.1024 Z" id="Shape" fill="#CFD3D4" sketch:type="MSShapeGroup"></path>
                <path d="M0,17.3568 L0,68.5568 L35.1997538,68.5568 L97.4988923,12.7024 L5.19144615,12.7024 C2.32535385,12.7024 0,14.7872 0,17.3568 L0,17.3568 Z" id="Shape" fill="#5B5C5F" sketch:type="MSShapeGroup"></path>
            </g>
            <g id="Group-2" sketch:type="MSLayerGroup" transform="translate(100.000000, 81.000000)">
                <path d="M59,5.0703125 C59,2.27023242 56.7985625,1.13686838e-13 54.0833333,1.13686838e-13 L4.91666667,1.13686838e-13 C2.2014375,1.13686838e-13 2.27373675e-13,2.27023242 2.27373675e-13,5.0703125 L2.27373675e-13,76.0546875 C2.27373675e-13,78.8547676 2.2014375,81.125 4.91666667,81.125 L54.0833333,81.125 C56.7985625,81.125 59,78.8547676 59,76.0546875 L59,5.0703125 L59,5.0703125 Z" id="Shape" fill="#FFFFFF" sketch:type="MSShapeGroup"></path>
                <rect id="Rectangle-path" fill="#3E3E3F" sketch:type="MSShapeGroup" x="4.91666667" y="7.60546875" width="49.1666667" height="60.84375"></rect>
                <ellipse id="Oval" fill="#CFD3D4" sketch:type="MSShapeGroup" cx="29.5" cy="74.7871094" rx="2.45833333" ry="2.53515625"></ellipse>
                <ellipse id="Oval" fill="#3E3E3F" sketch:type="MSShapeGroup" cx="29.5" cy="3.80273438" rx="1.22916667" ry="1.26757813"></ellipse>
                <path d="M4.92772917,55.7734375 L51.625,7.61687695 L4.92772917,7.61687695 L4.92772917,55.7734375 Z" id="Shape" fill="#5B5C5F" sketch:type="MSShapeGroup"></path>
            </g>
            <g id="Group-3" sketch:type="MSLayerGroup" transform="translate(1.000000, 104.000000)">
                <path d="M26.6666667,56 L5.33333333,56 C2.38755556,56 0,53.64975 0,50.75 L0,5.25 C0,2.35025 2.38755556,0 5.33333333,0 L26.6666667,0 C29.6124444,0 32,2.35025 32,5.25 L32,50.75 C32,53.64975 29.6124444,56 26.6666667,56 Z" id="Shape" fill="#FFFFFF" sketch:type="MSShapeGroup"></path>
                <rect id="Rectangle-path" fill="#3E3E3F" sketch:type="MSShapeGroup" x="1.77777778" y="10.5" width="28.4444444" height="35"></rect>
                <ellipse id="Oval" fill="#CFD3D4" sketch:type="MSShapeGroup" cx="9.77777778" cy="6.125" rx="0.888888889" ry="0.875"></ellipse>
                <path d="M23.1111111,6.125 C23.1111111,6.608 22.7128889,7 22.2222222,7 L13.3333333,7 C12.8426667,7 12.4444444,6.608 12.4444444,6.125 C12.4444444,5.642 12.8426667,5.25 13.3333333,5.25 L22.2222222,5.25 C22.7128889,5.25 23.1111111,5.642 23.1111111,6.125 L23.1111111,6.125 Z" id="Shape" fill="#CFD3D4" sketch:type="MSShapeGroup"></path>
                <ellipse id="Oval" fill="#CFD3D4" sketch:type="MSShapeGroup" cx="16" cy="50.75" rx="3.55555556" ry="3.5"></ellipse>
                <rect id="Rectangle-path" fill="#FFFFFF" sketch:type="MSShapeGroup" x="14.2222222" y="49" width="3.55555556" height="3.5"></rect>
                <path d="M30.2222222,14.5915 L30.2222222,10.5 L1.77777778,10.5 L1.77777778,42.5915 L30.2222222,14.5915 Z" id="Shape" fill="#5B5C5F" sketch:type="MSShapeGroup"></path>
            </g>
            <ellipse id="Oval-2" fill="#FFFFFF" sketch:type="MSShapeGroup" cx="79.5" cy="23.5" rx="23.5" ry="22.5"></ellipse>
            <path d="M93.8545076,25.145346 C93.5587022,24.4460934 92.8612397,23.9884524 92.0883757,23.9884524 L87.1452366,23.9884524 L87.1452366,10.8732012 C87.1452366,9.8385347 86.2897212,9 85.2341021,9 L73.7658453,9 C72.7102263,9 71.8547108,9.8385347 71.8547108,10.8732012 L71.8547108,23.9884524 L66.9115717,23.9884524 C66.1387077,23.9884524 65.4412452,24.4446721 65.1454398,25.145346 C64.8496345,25.8460199 65.0134875,26.6504447 65.5601473,27.1876754 L78.1115737,38.451044 C78.8583371,39.1829853 80.0676589,39.1829853 80.8144224,38.451044 L93.4412501,27.1876754 C93.98646,26.651866 94.1503129,25.8460199 93.8545076,25.145346 L93.8545076,25.145346 Z" id="Shape-3" fill="#17B198" sketch:type="MSShapeGroup"></path>
        </g>
    </g>
</svg>