<?xml version="1.0" encoding="UTF-8" standalone="no"?>
<svg width="61px" height="155px" viewBox="0 0 61 155" version="1.1" xmlns="http://www.w3.org/2000/svg" xmlns:xlink="http://www.w3.org/1999/xlink" xmlns:sketch="http://www.bohemiancoding.com/sketch/ns">
    <!-- Generator: Sketch 3.2.2 (9983) - http://www.bohemiancoding.com/sketch -->
    <title>Artboard 1</title>
    <desc>Created with Sketch.</desc>
    <defs></defs>
    <g id="Page-1" stroke="none" stroke-width="1" fill="none" fill-rule="evenodd" sketch:type="MSPage">
        <g id="Artboard-1" sketch:type="MSArtboardGroup">
            <path d="M26.8942333,26.3616746 C22.8725073,27.4031834 19.5081443,29.8913849 17.7779486,32.810587 L14,30.7762822 C16.186609,27.3462875 19.6074417,24.6383396 23.6631469,23.1305882 L26.8942333,26.3616746 Z M41.4439782,29.597711 C42.0831779,30.1340725 42.6604316,30.7115697 43.165358,31.3190907 L44.504672,32.6584048 L48,30.7762822 C45.0358267,26.1286604 39.8079147,22.8067227 33.8462672,22 L41.4439782,29.597711 Z" id="Shape" fill="#FFFFFF" sketch:type="MSShapeGroup"></path>
            <path d="M20.8751391,9.21828487 C23.9921201,8.40430556 27.2113645,8 30.4662875,8 L30.4984676,8 L30.5306478,8 C41.7569217,8 52.4238741,12.8002131 60,22.3840348 L56.5398681,25 C50.6033972,17.2004085 41.1225131,12.2869828 30.5321801,12.2869828 L30.5,12.2869828 L30.4678199,12.2869828 C28.4234609,12.2869828 26.4210778,12.4699397 24.4779868,12.8211326 L20.8751391,9.21828487 Z M12.7578009,12.4146551 C8.38711367,14.7762284 4.39019264,18.0930944 1,22.3840348 L4.46013194,25 C7.47734233,21.035345 11.412903,17.8134753 15.94831,15.6051642 L12.7578009,12.4146551 Z" id="Shape" fill="#FFFFFF" sketch:type="MSShapeGroup"></path>
            <rect id="Rectangle-112" fill="#FFFFFF" sketch:type="MSShapeGroup" x="26.9203102" y="-6.07968978" width="4" height="58"></rect>
            <g id="Group-5" sketch:type="MSLayerGroup" transform="translate(4.000000, 62.000000)">
                <path d="M44.1666667,92 L8.83333333,92 C3.95438889,92 0,88.138875 0,83.375 L0,8.625 C0,3.861125 3.95438889,0 8.83333333,0 L44.1666667,0 C49.0456111,0 53,3.861125 53,8.625 L53,83.375 C53,88.138875 49.0456111,92 44.1666667,92 Z" id="Shape" fill="#FFFFFF" sketch:type="MSShapeGroup"></path>
                <rect id="Rectangle-path" fill="#3E3E3F" sketch:type="MSShapeGroup" x="2.94444444" y="17.25" width="47.1111111" height="57.5"></rect>
                <ellipse id="Oval" fill="#CFD3D4" sketch:type="MSShapeGroup" cx="16.1944444" cy="10.0625" rx="1.47222222" ry="1.4375"></ellipse>
                <path d="M38.2777778,10.0625 C38.2777778,10.856 37.6182222,11.5 36.8055556,11.5 L22.0833333,11.5 C21.2706667,11.5 20.6111111,10.856 20.6111111,10.0625 C20.6111111,9.269 21.2706667,8.625 22.0833333,8.625 L36.8055556,8.625 C37.6182222,8.625 38.2777778,9.269 38.2777778,10.0625 L38.2777778,10.0625 Z" id="Shape" fill="#CFD3D4" sketch:type="MSShapeGroup"></path>
                <ellipse id="Oval" fill="#CFD3D4" sketch:type="MSShapeGroup" cx="26.5" cy="83.375" rx="5.88888889" ry="5.75"></ellipse>
                <rect id="Rectangle-path" fill="#FFFFFF" sketch:type="MSShapeGroup" x="23.5555556" y="80.5" width="5.88888889" height="5.75"></rect>
                <path d="M50.0555556,23.97175 L50.0555556,17.25 L2.94444444,17.25 L2.94444444,69.97175 L50.0555556,23.97175 Z" id="Shape" fill="#5B5C5F" sketch:type="MSShapeGroup"></path>
            </g>
        </g>
    </g>
</svg>